REM DIRINDEX 1\2,1\3,1\4
REM DIRNAME folder01,folder02,folder03,folder04
TITLE ""
FILE "DISC2Track13.mp3" MP3
  TRACK 01 AUDIO
    TITLE "0:"
    INDEX 01 00:00:00
  TRACK 02 AUDIO
    TITLE "4:cjc105_2455"
    INDEX 01 00:00:15
  TRACK 03 AUDIO
    TITLE "0:"
    INDEX 01 00:02:57
  TRACK 04 AUDIO
    TITLE "2:cjc105_2456"
    INDEX 01 00:03:29
  TRACK 05 AUDIO
    TITLE "3:cjc105_2457"
    INDEX 01 00:05:18
  TRACK 06 AUDIO
    TITLE "0:"
    INDEX 01 00:06:53
  TRACK 07 AUDIO
    TITLE "2:cjc105_2458"
    INDEX 01 00:06:69
  TRACK 08 AUDIO
    TITLE "3:cjc105_2459"
    INDEX 01 00:08:23
  TRACK 09 AUDIO
    TITLE "0:"
    INDEX 01 00:09:51
  TRACK 10 AUDIO
    TITLE "2:cjc105_2460"
    INDEX 01 00:09:67
  TRACK 11 AUDIO
    TITLE "3:cjc105_2461"
    INDEX 01 00:11:37
  TRACK 12 AUDIO
    TITLE "0:"
    INDEX 01 00:13:26
  TRACK 13 AUDIO
    TITLE "2:cjc105_2462"
    INDEX 01 00:13:39
  TRACK 14 AUDIO
    TITLE "3:cjc105_2463"
    INDEX 01 00:15:15
  TRACK 15 AUDIO
    TITLE "0:"
    INDEX 01 00:16:55
  TRACK 16 AUDIO
    TITLE "2:cjc105_2464"
    INDEX 01 00:16:71
  TRACK 17 AUDIO
    TITLE "3:cjc105_2465"
    INDEX 01 00:17:72
  TRACK 18 AUDIO
    TITLE "0:"
    INDEX 01 00:19:38
  TRACK 19 AUDIO
    TITLE "2:cjc105_2466"
    INDEX 01 00:19:52
  TRACK 20 AUDIO
    TITLE "3:cjc105_2467"
    INDEX 01 00:20:57
  TRACK 21 AUDIO
    TITLE "0:"
    INDEX 01 00:23:40
  TRACK 22 AUDIO
    TITLE "2:cjc105_2468"
    INDEX 01 00:23:50
  TRACK 23 AUDIO
    TITLE "3:cjc105_2469"
    INDEX 01 00:25:09
  TRACK 24 AUDIO
    TITLE "0:"
    INDEX 01 00:26:38
  TRACK 25 AUDIO
    TITLE "2:cjc105_2470"
    INDEX 01 00:26:54
  TRACK 26 AUDIO
    TITLE "3:cjc105_2471"
    INDEX 01 00:28:29
  TRACK 27 AUDIO
    TITLE "0:"
    INDEX 01 00:29:54
  TRACK 28 AUDIO
    TITLE "2:cjc105_2472"
    INDEX 01 00:29:66
  TRACK 29 AUDIO
    TITLE "3:cjc105_2473"
    INDEX 01 00:30:71
  TRACK 30 AUDIO
    TITLE "0:"
    INDEX 01 00:32:72
  TRACK 31 AUDIO
    TITLE "2:cjc105_2474"
    INDEX 01 00:33:13
  TRACK 32 AUDIO
    TITLE "3:cjc105_2475"
    INDEX 01 00:34:53
  TRACK 33 AUDIO
    TITLE "0:"
    INDEX 01 00:37:30
  TRACK 34 AUDIO
    TITLE "2:cjc105_2476"
    INDEX 01 00:37:44
  TRACK 35 AUDIO
    TITLE "3:cjc105_2477"
    INDEX 01 00:38:45
  TRACK 36 AUDIO
    TITLE "0:"
    INDEX 01 00:40:44
  TRACK 37 AUDIO
    TITLE "2:cjc105_2478"
    INDEX 01 00:40:60
  TRACK 38 AUDIO
    TITLE "3:cjc105_2479"
    INDEX 01 00:42:18
  TRACK 39 AUDIO
    TITLE "0:"
    INDEX 01 00:43:66
  TRACK 40 AUDIO
    TITLE "2:cjc105_2480"
    INDEX 01 00:44:03
  TRACK 41 AUDIO
    TITLE "3:cjc105_2481"
    INDEX 01 00:45:08
  TRACK 42 AUDIO
    TITLE "0:"
    INDEX 01 00:47:36
  TRACK 43 AUDIO
    TITLE "2:cjc105_2482"
    INDEX 01 00:47:48
  TRACK 44 AUDIO
    TITLE "3:cjc105_2483"
    INDEX 01 00:49:29
  TRACK 45 AUDIO
    TITLE "0:"
    INDEX 01 00:51:01
  TRACK 46 AUDIO
    TITLE "2:cjc105_2484"
    INDEX 01 00:51:15
  TRACK 47 AUDIO
    TITLE "3:cjc105_2485"
    INDEX 01 00:52:55
  TRACK 48 AUDIO
    TITLE "0:"
    INDEX 01 00:54:13
  TRACK 49 AUDIO
    TITLE "2:cjc105_2486"
    INDEX 01 00:54:29
  TRACK 50 AUDIO
    TITLE "3:cjc105_2487"
    INDEX 01 00:55:73
  TRACK 51 AUDIO
    TITLE "0:"
    INDEX 01 00:58:03
  TRACK 52 AUDIO
    TITLE "2:cjc105_2488"
    INDEX 01 00:58:18
  TRACK 53 AUDIO
    TITLE "3:cjc105_2489"
    INDEX 01 00:59:69
  TRACK 54 AUDIO
    TITLE "0:"
    INDEX 01 01:01:40
  TRACK 55 AUDIO
    TITLE "2:cjc105_2490"
    INDEX 01 01:01:52
  TRACK 56 AUDIO
    TITLE "3:cjc105_2491"
    INDEX 01 01:02:57
  TRACK 57 AUDIO
    TITLE "0:"
    INDEX 01 01:03:57
  TRACK 58 AUDIO
    TITLE "2:cjc105_2492"
    INDEX 01 01:03:69
  TRACK 59 AUDIO
    TITLE "3:cjc105_2493"
    INDEX 01 01:04:60
  TRACK 60 AUDIO
    TITLE "0:"
    INDEX 01 01:06:26
  TRACK 61 AUDIO
    TITLE "2:cjc105_2494"
    INDEX 01 01:06:42
  TRACK 62 AUDIO
    TITLE "3:cjc105_2495"
    INDEX 01 01:07:51
  TRACK 63 AUDIO
    TITLE "0:"
    INDEX 01 01:09:18
  TRACK 64 AUDIO
    TITLE "2:cjc105_2496"
    INDEX 01 01:09:28
  TRACK 65 AUDIO
    TITLE "3:cjc105_2497"
    INDEX 01 01:10:26
  TRACK 66 AUDIO
    TITLE "0:"
    INDEX 01 01:12:26
  TRACK 67 AUDIO
    TITLE "2:cjc105_2498"
    INDEX 01 01:12:46
  TRACK 68 AUDIO
    TITLE "3:cjc105_2499"
    INDEX 01 01:14:02
  TRACK 69 AUDIO
    TITLE "0:"
    INDEX 01 01:16:65
  TRACK 70 AUDIO
    TITLE "2:cjc105_2500"
    INDEX 01 01:17:02
  TRACK 71 AUDIO
    TITLE "3:cjc105_2501"
    INDEX 01 01:18:53
  TRACK 72 AUDIO
    TITLE "0:"
    INDEX 01 01:19:70
  TRACK 73 AUDIO
    TITLE "2:cjc105_2502"
    INDEX 01 01:20:10
  TRACK 74 AUDIO
    TITLE "3:cjc105_2503"
    INDEX 01 01:21:67
  TRACK 75 AUDIO
    TITLE "0:"
    INDEX 01 01:23:30
  TRACK 76 AUDIO
    TITLE "2:cjc105_2504"
    INDEX 01 01:23:44
  TRACK 77 AUDIO
    TITLE "3:cjc105_2505"
    INDEX 01 01:25:17
  TRACK 78 AUDIO
    TITLE "0:"
    INDEX 01 01:27:04
  TRACK 79 AUDIO
    TITLE "2:cjc105_2506"
    INDEX 01 01:27:16
  TRACK 80 AUDIO
    TITLE "3:cjc105_2507"
    INDEX 01 01:28:43
  TRACK 81 AUDIO
    TITLE "0:"
    INDEX 01 01:30:28
